<svg width="32" height="32" viewBox="0 0 32 32" fill="none" xmlns="http://www.w3.org/2000/svg" role="img" aria-label="EMC Consig">
  <rect width="32" height="32" rx="7" fill="#0a113d"/>
  <g transform="translate(16 17.5) scale(0.42)">
    <path d="M19 38 C 15 34 14 28 16 22 C 12 26 11 33 13 39 C 15 44 18 47 22 48 C 20 45 18 42 19 38 Z" fill="#07102e"/>
    <circle cx="32" cy="36" r="21" stroke="#f9a825" stroke-width="4.5" fill="none"/>
    <path d="M35 27 C 42 27 46 31 46 36 C 46 40 42 43 35 44 C 28 45 24 48 24 52 C 24 56 28 59 35 60" stroke="#f9a825" stroke-width="3.5" stroke-linecap="round" fill="none"/>
    <path d="M32 23 V 49" stroke="#f9a825" stroke-width="3.5" stroke-linecap="round"/>
  </g>
</svg>
